<?xml version="1.0" encoding="utf-8"?>
<!-- Generator: Adobe Illustrator 19.0.0, SVG Export Plug-In . SVG Version: 6.00 Build 0)  -->
<svg version="1.1" id="Layer_1" xmlns="http://www.w3.org/2000/svg" xmlns:xlink="http://www.w3.org/1999/xlink" x="0px" y="0px"
	 viewBox="0 0 494.502 251.029" style="enable-background:new 0 0 494.502 251.029;" xml:space="preserve">
<g id="XMLID_29_">
	<g id="XMLID_28_">
		<g id="XMLID_30_">
			<path id="XMLID_37_" d="M460.859,148.387c3.646-5.914,7.472-11.445,10.563-17.36c1.987-3.803,4.426-5.758,8.211-5.81
				c0.643-0.009,11.568,0.131,12.081,0.161c0.52,0.031,1.004,0.198,1.366,0.754c0.788,1.212-0.359,1.977-0.872,2.795
				c-6.755,10.77-13.516,21.536-20.381,32.236c-1.006,1.568-0.992,2.658-0.004,4.198c7.197,11.221,14.314,22.494,21.421,33.772
				c0.521,0.826,1.646,1.636,0.888,2.798c-0.679,1.04-1.895,0.755-2.934,0.759c-4.505,0.014-9.012-0.083-13.514,0.044
				c-2.229,0.063-3.551-0.818-4.695-2.682c-4.016-6.545-8.172-13.005-12.297-19.483c-0.411-0.645-0.618-1.484-1.556-1.846
				c-4.086,7.006-8.236,13.983-12.229,21.048c-1.023,1.81-2.229,2.788-4.065,2.986c-0.385,0.042-13.366,0.183-14.204,0.1
				c-0.614-0.061-1.153-0.31-1.502-1c-0.769-1.524,0.815-2.734,1.542-3.955c6.455-10.848,12.939-21.679,19.513-32.456
				c1.041-1.707,1.158-2.891-0.008-4.678c-6.947-10.646-13.729-21.4-20.551-32.128c-0.453-0.712-1.288-1.398-0.785-2.369
				c0.4-0.773,1.091-0.865,1.804-0.859c0.268,0.002,14.876-0.041,15.02-0.037c1.987,0.047,3.253,0.915,4.309,2.619
				c3.627,5.854,7.338,11.656,11.018,17.477C459.558,146.36,460.129,147.245,460.859,148.387z"/>
			<path id="XMLID_36_" d="M240.462,125.535c1.631,0.095,2.438,0.98,2.924,2.825c3.751,14.239,7.628,28.445,11.463,42.661
				c0.987,3.66,1.95,7.327,2.969,10.979c0.265,0.951,0.177,2.316,1.7,2.277c1.494-0.038,1.407-1.427,1.66-2.357
				c4.807-17.698,9.616-35.395,14.301-53.126c0.626-2.369,1.592-3.415,4.142-3.274c3.61,0.199,7.239,0.04,10.861,0.053
				c3.333,0.013,3.784,0.604,2.892,3.756c-4.37,15.445-8.747,30.888-13.115,46.334c-1.439,5.09-2.857,10.187-4.282,15.281
				c-2.202,7.874-8.428,12.794-16.164,12.772c-8.649-0.025-14.247-4.289-16.661-12.679c-5.901-20.509-11.805-41.017-17.709-61.525
				c-0.952-3.307-0.622-3.893,2.594-3.939C228.127,125.573,240.229,125.521,240.462,125.535z"/>
			<path id="XMLID_35_" d="M368.282,164.086c0-6.535-0.17-13.076,0.037-19.604c0.373-11.77,6.709-18.378,18.399-19.604
				c8.845-0.928,17.629-0.163,26.421,0.746c2.474,0.256,3.643,1.255,3.421,3.882c-0.186,2.192-0.026,4.413-0.041,6.621
				c-0.021,3.075-0.497,3.575-3.503,3.582c-6.8,0.015-13.601-0.016-20.401,0.013c-4.914,0.021-6.52,1.551-6.712,6.446
				c-0.1,2.558,0.074,5.128-0.076,7.681c-0.108,1.84,0.467,2.426,2.35,2.403c7.947-0.097,15.897-0.048,23.845-0.038
				c3.287,0.004,3.609,0.341,3.625,3.674c0.012,2.385-0.099,4.775,0.03,7.152c0.134,2.466-1.026,3.284-3.323,3.271
				c-7.948-0.047-15.898,0.045-23.845-0.062c-2.032-0.027-2.84,0.457-2.694,2.624c0.19,2.814,0.007,5.65,0.062,8.475
				c0.104,5.293,1.805,6.992,7.047,7.016c6.712,0.03,13.424-0.002,20.136,0.012c3.094,0.006,3.482,0.411,3.497,3.546
				c0.012,2.561-0.035,5.123,0.013,7.683c0.031,1.621-0.716,2.479-2.283,2.673c-9.833,1.215-19.703,2.078-29.556,0.579
				c-10.263-1.562-15.896-7.892-16.355-18.373c-0.297-6.787-0.056-13.597-0.056-20.397
				C368.309,164.086,368.295,164.086,368.282,164.086z"/>
			<path id="XMLID_34_" d="M340.185,170.978c0,9.273,0.004,18.545-0.002,27.818c-0.002,3.441-0.473,3.89-4.027,3.898
				c-3.267,0.007-6.535,0.008-9.802,0c-3.579-0.008-3.991-0.402-3.992-3.924c-0.006-18.457-0.061-36.914,0.062-55.37
				c0.018-2.659-0.604-3.498-3.326-3.344c-4.401,0.248-8.828,0.013-13.242,0.089c-2.314,0.04-3.447-0.784-3.346-3.247
				c0.12-2.909,0.052-5.828,0.022-8.741c-0.019-1.87,0.821-2.742,2.719-2.74c17.309,0.017,34.618,0.018,51.927-0.001
				c2.07-0.002,2.799,1.027,2.757,2.979c-0.062,2.913-0.082,5.83,0.006,8.742c0.067,2.197-0.976,3.011-3.043,2.996
				c-4.68-0.033-9.366,0.12-14.039-0.066c-2.29-0.091-2.749,0.694-2.723,2.829C340.251,152.256,340.185,161.617,340.185,170.978z"/>
			<path id="XMLID_31_" d="M204.547,78.268c-3.447-3.503-7.764-4.671-12.537-4.67c-50.533,0.009-101.066,0.005-151.598,0.008
				c-2.035,0-4.063,0.147-6.027,0.717c-9.863,2.86-14.541,13.58-9.815,22.924c4.661,9.215,9.536,18.322,14.391,27.437
				c0.908,1.704,0.789,2.21-1.286,2.188c-8.392-0.086-16.785-0.077-25.178-0.023c-8.875,0.057-13.414,7.738-9.273,15.622
				c2.258,4.299,4.556,8.577,6.825,12.87c13.983,26.454,27.979,52.9,41.924,79.375c2.104,3.995,5.122,6.623,9.722,6.643
				c4.717,0.02,7.801-2.625,9.889-6.774c2.897-5.754,5.991-11.41,9.015-17.1c1.192-2.243,2.421-4.465,3.649-6.725
				c0.967,0.628,1.171,1.531,1.573,2.288c5.093,9.587,10.18,19.177,15.238,28.783c1.084,2.058,2.39,3.921,4.188,5.405
				c8.065,6.656,19.447,4.322,24.514-5.179c18.941-35.516,37.821-71.065,56.715-106.606c6.795-12.781,13.588-25.564,20.345-38.365
				C210.366,90.369,209.482,83.283,204.547,78.268z M123.647,136.565c-10.988,20.646-22.027,41.264-33.005,61.915
				c-1.363,2.563-3.292,4.196-6.212,4.232c-3.049,0.038-5.04-1.67-6.439-4.312c-10.826-20.432-21.574-40.907-32.613-61.223
				c-3.015-5.548,0.616-10.606,6.244-10.418c11.029,0.369,22.08,0.108,33.121,0.108s22.083-0.01,33.125,0.004
				C124.136,126.88,126.614,130.992,123.647,136.565z"/>
		</g>
	</g>
	<g id="XMLID_27_">
		<path id="XMLID_52_" d="M40.295,20.987c0,11.669-8.647,18.301-19.476,18.301H7.891v16.538H0V1.259h21.91
			c10.326,0,18.385,6.548,18.385,18.217V20.987z M21.239,32.236c7.555,0,11.081-5.541,11.081-11.837
			c0-6.464-3.023-12.089-10.494-12.089H7.891v23.925H21.239z"/>
		<path id="XMLID_55_" d="M100.986,29.55c0,16.37-11.669,27.535-26.695,27.535c-15.111,0-26.78-11.165-26.78-27.535v-2.015
			C47.511,11.165,59.347,0,74.291,0c14.775,0,26.695,11.165,26.695,27.535V29.55z M93.011,28.542
			c0-11.753-6.464-21.323-18.805-21.323c-12.424,0-18.72,9.57-18.72,21.323s6.8,21.323,18.805,21.323
			C86.378,49.865,93.011,40.295,93.011,28.542z"/>
		<path id="XMLID_58_" d="M146.984,1.259l9.822,37.273c0.503,1.595,1.595,5.96,1.763,7.387h0.168
			c0.42-1.427,1.342-5.708,1.847-7.387L171.33,1.259h7.89v1.259l-16.033,53.307h-8.563l-12.089-44.241h-0.168l-11.921,44.241h-8.563
			L105.851,2.518V1.259h7.89l10.745,37.273c0.504,1.679,1.595,5.876,1.848,7.387h0.168c0.42-1.427,1.259-5.708,1.762-7.387
			l9.822-37.273H146.984z"/>
		<path id="XMLID_60_" d="M221.525,1.259v7.051h-25.688v16.202h22.078v7.052h-22.078v17.209h25.688v7.052h-33.579V1.259H221.525z"/>
		<path id="XMLID_62_" d="M234.448,55.825V1.259h20.987c9.738,0,17.545,5.624,17.545,16.034v1.427c0,8.731-5.96,13.935-13.767,15.53
			l15.697,20.315v1.259h-9.066l-15.866-20.651h-7.639v20.651H234.448z M254.763,27.955c6.968,0,10.242-4.617,10.242-9.738
			c0-5.457-2.687-9.906-9.654-9.906H242.34v19.644H254.763z"/>
		<path id="XMLID_65_" d="M319.064,1.259v7.051h-25.688v16.202h22.078v7.052h-22.078v17.209h25.688v7.052h-33.579V1.259H319.064z"/>
		<path id="XMLID_67_" d="M351.043,1.259c8.143,0,14.775,2.518,19.728,7.471c4.282,4.281,6.968,11.165,6.968,18.972v1.847
			c0,8.311-3.106,14.859-7.387,19.14c-4.365,4.365-11.585,7.136-19.308,7.136h-19.056V1.259H351.043z M339.878,8.311v40.463h10.494
			c6.212,0,10.829-1.511,13.767-4.449c3.946-3.945,5.624-9.234,5.624-15.698c0-6.38-1.763-11.837-5.373-15.447
			c-3.274-3.274-7.723-4.869-14.187-4.869H339.878z"/>
		<path id="XMLID_70_" d="M434.734,27.451c4.45,1.595,9.067,6.716,9.067,12.76v0.504c0,10.158-7.136,15.111-16.874,15.111h-22.666
			V1.259h20.147c9.403,0,16.79,4.281,16.79,14.271v0.504c0,5.625-2.687,9.318-6.464,11.249V27.451z M412.153,8.227v16.37h13.767
			c5.541,0,7.304-4.701,7.304-8.731c0-3.022-1.511-7.639-7.891-7.639H412.153z M412.153,31.48v17.377h14.607
			c7.723,0,9.067-4.953,9.067-8.647c0-3.442-1.511-8.731-8.982-8.731H412.153z"/>
		<path id="XMLID_74_" d="M466.547,55.825V34.503L446.484,2.518V1.259h8.73l15.531,25.772l15.614-25.772h8.143v1.259l-19.979,31.984
			v21.323H466.547z"/>
	</g>
</g>
</svg>
